PathFileType	4	(X/Y/Z)	C:\Users\WrightLab\Desktop\Jo\P4V136.trc
DataRate	CameraRate	NumFrames	NumMarkers	Units	OrigDataRate	OrigDataStartFrame	OrigNumFrames
100.00	100.00	       23	19	mm	100.00	71	       565
Frame#	Time	Headset_Front			Headset_Back			Headset_Left			Headset_Right			Left_Shoulder			Right_Shoulder			Sternum			C7			Left Elbow			Right Elbow			Left Wrist			Right Wrist			Left ASIS			Right ASIS			S2			Left Knee			Right Knee			Left Ankle			Right Ankle			
		X1	Y1	Z1	X2	Y2	Z2	X3	Y3	Z3	X4	Y4	Z4	X5	Y5	Z5	X6	Y6	Z6	X7	Y7	Z7	X8	Y8	Z8	X9	Y9	Z9	X10	Y10	Z10	X11	Y11	Z11	X12	Y12	Z12	X13	Y13	Z13	X14	Y14	Z14	X15	Y15	Z15	X16	Y16	Z16	X17	Y17	Z17	X18	Y18	Z18	X19	Y19	Z19	

71	0.700																									-1.54219	1138.02161	-1111.01697				-85.71875	874.50165	-962.40698	-607.37170	839.17200	-1259.17737	-145.94342	956.88086	-1155.40210	-465.14331	990.22028	-1240.61877				-81.84113	498.87552	-1298.65527	-538.20398	537.09973	-1169.54834							
72	0.710				-435.12012	1663.85999	-1137.65820							-436.17575	1468.85864	-1284.04077	-285.56958	1504.51147	-1266.64124							-9.54667	1139.04541	-1102.67590				-90.72488	873.45154	-957.08624	-614.05884	840.33148	-1251.18738	-155.06270	956.73761	-1150.20581	-471.82111	991.27362	-1233.33374				-88.08031	499.33090	-1276.59912	-545.47241	538.78949	-1163.62891							
73	0.720				-442.59055	1664.89417	-1129.40308							-443.50974	1469.73206	-1276.57739	-292.96533	1505.28992	-1258.83972							-17.20350	1140.17932	-1095.20862				-97.57565	873.26569	-952.23553	-620.99115	842.04028	-1243.71619	-164.86125	958.08978	-1137.98901	-479.41037	992.95941	-1226.62561				-96.57464	497.68805	-1261.17908	-551.84418	539.10034	-1158.76465							
74	0.730				-449.95364	1665.76489	-1121.70215							-450.80377	1470.80237	-1269.02393	-300.25101	1506.29016	-1250.96619							-25.31619	1141.48315	-1087.02209				-104.03147	872.70239	-947.25500	-626.54816	842.98822	-1236.22595	-172.02034	959.10297	-1128.46594	-487.03293	994.00311	-1219.84998				-105.49430	495.63092	-1244.32727	-557.04230	537.80457	-1152.96997							
75	0.740				-457.04120	1666.82959	-1113.11511							-458.00311	1472.03699	-1262.16931	-307.38721	1507.48816	-1243.14600							-32.53549	1143.41418	-1080.99817	-565.63068	1120.96411	-1342.03088	-110.37528	872.29285	-942.02954	-633.97705	844.47253	-1225.61890	-181.79045	958.95972	-1120.72620	-495.79330	995.71265	-1213.43860				-114.42163	493.77393	-1226.35071	-561.16791	537.31671	-1150.67542							
76	0.750				-464.07739	1667.98035	-1105.51929							-465.20251	1473.13281	-1254.47803	-314.45026	1508.79541	-1235.28040							-40.36796	1144.04260	-1072.05774	-573.00812	1122.17700	-1334.61841	-116.90146	871.48407	-936.81018	-640.93378	846.38788	-1217.63574	-188.20627	960.90955	-1110.05347	-504.15485	996.23413	-1207.40588				-124.43563	492.59067	-1206.84155	-564.97705	534.35535	-1146.10999							
77	0.760				-470.94522	1669.06750	-1097.25293							-472.39221	1474.35205	-1246.73804	-321.46317	1510.19666	-1227.63391							-47.80525	1144.47144	-1062.06506	-580.45978	1123.64929	-1327.04529	-122.96175	871.00287	-931.46967	-646.66016	847.96069	-1207.82446	-197.39282	961.95306	-1098.89478	-511.25314	997.78455	-1200.73816				-133.47803	490.54172	-1187.23242	-566.21869	534.20935	-1142.18469							
78	0.770				-477.65225	1670.28357	-1089.26831							-479.21521	1475.96472	-1239.24622	-328.38702	1511.65430	-1220.23022							-54.96093	1146.58313	-1056.86609	-588.11786	1124.87012	-1319.38428	-129.53397	871.42102	-926.92969	-653.80524	850.10492	-1197.90002	-204.11237	962.21844	-1093.03870	-517.47925	998.00580	-1193.77991				-143.05762	488.71628	-1167.68823	-568.16254	533.50995	-1137.40564							
79	0.780				-484.15787	1671.48633	-1080.61829							-486.05298	1477.49646	-1231.76648	-335.08282	1513.02539	-1212.37305							-62.08533	1147.51001	-1048.80676	-595.70313	1126.47449	-1311.39697	-135.82855	870.41779	-921.46973	-660.04327	853.04791	-1188.40857	-212.09755	963.39307	-1080.67126	-524.06055	999.49609	-1188.21997				-153.56522	487.32077	-1147.95935	-571.35944	533.42035	-1133.48132							
80	0.790				-490.39600	1672.83276	-1073.11035							-492.76846	1478.66248	-1223.70264	-341.83850	1514.26331	-1205.06970							-69.29573	1148.42810	-1041.05640	-603.47235	1127.98230	-1303.63110	-142.34602	870.62549	-917.00214	-667.20050	855.72662	-1178.39526	-218.68030	964.75494	-1075.58582	-530.21594	1000.06824	-1181.78210				-163.76762	486.93600	-1127.11633	-574.87830	533.34814	-1128.64844							
81	0.800				-496.55099	1673.94861	-1065.02515							-499.55511	1479.61829	-1215.73071	-348.31033	1515.55005	-1197.48645							-75.31358	1149.72485	-1034.44739	-611.26599	1129.68457	-1296.05469	-148.49355	870.42871	-912.62665	-673.22589	857.79205	-1167.34497	-224.91531	966.91943	-1067.20886	-537.75433	1002.73358	-1176.19409				-175.09239	486.81119	-1107.02673	-579.36060	533.26190	-1124.82532							
82	0.810	-408.80548	1415.84265	-1037.07715	-502.55176	1675.20618	-1056.74146							-506.05011	1480.95557	-1208.35681	-354.56970	1517.00476	-1189.78491							-81.71458	1151.35986	-1029.11560	-619.05383	1130.81848	-1287.30481	-154.96063	870.62158	-906.24536	-680.66675	860.35797	-1155.65100	-233.03079	969.00250	-1051.05237	-542.32495	1002.64038	-1170.44250				-185.87485	487.33261	-1088.17993	-583.01263	533.36426	-1121.36584							
83	0.820	-414.73590	1416.67786	-1028.82227	-508.26996	1676.75427	-1048.59534							-512.47272	1482.45081	-1200.41504	-360.67993	1518.62183	-1182.21716							-87.92010	1151.75195	-1020.38434	-626.72919	1132.87476	-1279.61340	-160.73137	871.40186	-903.31744	-687.17700	862.82336	-1143.54138	-239.29767	970.46112	-1043.20605	-549.47443	1004.99561	-1164.24976				-196.78389	488.83896	-1068.71313	-586.55701	533.33795	-1117.45496							
84	0.830	-420.56900	1418.11426	-1021.22778	-513.71326	1678.67395	-1040.50830							-518.69507	1483.84888	-1191.96667	-366.69113	1520.23779	-1174.76648							-93.82405	1153.40100	-1015.49451	-634.54736	1134.00122	-1270.49133	-167.00009	872.63953	-897.25177	-693.47241	866.53766	-1133.52734	-245.14035	971.74609	-1035.71057	-554.51666	1005.68835	-1158.71057				-208.74396	489.80023	-1047.94299	-588.53943	532.66425	-1113.64111							
85	0.840	-424.93893	1418.55579	-1013.23499	-519.09955	1680.21765	-1032.15503							-524.68268	1485.60315	-1184.45752	-372.65332	1521.86731	-1167.39490							-99.41933	1153.99536	-1007.22498	-642.10278	1135.98621	-1261.50403	-172.54607	872.47937	-892.45020	-699.59210	870.24567	-1121.25879	-251.17111	974.90436	-1026.56323	-559.89978	1006.45203	-1152.80444				-220.93761	492.09372	-1028.13794	-591.33118	532.52930	-1110.32141							
86	0.850	-430.13760	1420.87891	-1006.67426	-524.40759	1681.71167	-1024.31177							-530.52789	1487.38794	-1176.53564	-378.25870	1523.58228	-1159.45386							-105.31805	1155.68945	-1002.00610	-649.55615	1137.86951	-1252.30835	-178.79834	873.17029	-886.81873	-704.07220	873.04974	-1107.96997	-257.21756	977.74548	-1020.13647	-565.30145	1007.42566	-1146.36548				-233.94769	493.91833	-1008.19373	-592.10803	532.15613	-1107.26965							
87	0.860	-435.20596	1421.58069	-998.35193	-529.42749	1683.36633	-1016.32770							-536.04449	1489.22205	-1168.53528	-383.81339	1525.51111	-1152.04919							-110.55343	1157.40332	-996.25677	-657.07416	1139.92358	-1243.13135	-184.01411	874.47467	-882.01129	-711.04340	876.48468	-1095.99890	-263.89151	980.05695	-1012.05255	-571.01563	1009.20294	-1139.45325				-246.38228	498.15317	-988.31757	-592.99603	531.86047	-1103.74817	-139.97296	234.34114	-1395.30896				
88	0.870	-440.50385	1423.81543	-991.58990	-534.17712	1685.32104	-1008.16400							-541.60144	1490.75549	-1160.45203	-389.15527	1527.43018	-1144.58911							-116.16391	1159.24048	-990.70923	-664.40765	1141.84021	-1233.17700	-189.31712	876.61359	-876.44684	-716.45715	880.92303	-1082.89124	-268.92725	983.27582	-1004.36810	-575.92889	1010.24561	-1132.49207				-259.75839	502.08951	-968.22119	-593.86664	531.36975	-1099.81604	-149.51703	233.42677	-1373.22034				
89	0.880	-445.49442	1425.68201	-984.60712	-538.95099	1687.08411	-999.48895							-546.92139	1492.27063	-1152.83801	-394.57614	1528.94275	-1137.17798							-121.22553	1160.48083	-984.14502	-671.69635	1144.15393	-1223.54016	-194.72678	877.73456	-870.14368	-721.43109	884.51013	-1069.24744	-273.27185	985.96106	-996.88739	-579.84595	1010.70258	-1123.61768				-272.54163	505.99026	-949.20581	-595.25787	531.55524	-1096.57019	-161.01582	232.98285	-1350.17639				
90	0.890	-449.19235	1425.74268	-976.38086	-543.30042	1689.15906	-991.66492							-551.81531	1494.38672	-1144.79187	-399.72775	1530.45044	-1130.00159							-126.10558	1162.17212	-978.22028	-678.68719	1146.22571	-1213.10828	-198.82724	878.39410	-864.65192	-726.72455	888.65173	-1055.14929	-278.41138	989.08704	-988.92371	-585.76398	1011.96289	-1115.60278				-285.94513	511.01712	-929.98999	-596.44165	530.77350	-1093.50354	-172.59848	229.56296	-1327.12830				
91	0.900	-453.70081	1427.82874	-969.74103	-547.72650	1690.43884	-982.54797							-556.85028	1495.82312	-1136.50305										-130.93524	1163.69617	-972.52374	-686.69751	1149.04736	-1203.80774	-204.42972	880.20746	-858.44922	-731.09210	891.94781	-1041.28589	-283.19904	991.64850	-982.25916	-590.81506	1012.62378	-1111.58862				-297.84537	516.01605	-911.18433	-597.87897	529.96906	-1090.32739	-185.45932	224.60712	-1304.48804				
92	0.910	-458.59583	1429.72961	-962.01324	-552.00922	1691.42053	-974.48206							-561.66138	1497.46179	-1128.83716							-409.53207	1533.45325	-1115.25696	-135.77649	1164.71509	-965.58124	-692.18011	1150.40576	-1193.06445	-208.53320	881.16376	-853.94409	-736.83258	896.42749	-1027.30127	-287.84167	993.18933	-972.82056	-594.44135	1012.44586	-1102.78552				-310.25085	522.69098	-893.15997	-599.63617	529.84747	-1087.65710	-198.23906	219.67166	-1281.86658				
93	0.920	-462.61282	1430.85010	-953.10425	-556.12170	1692.57922	-966.18365							-566.40820	1498.93884	-1120.88916				-421.13116	1741.78589	-1151.00891	-414.25433	1534.63953	-1107.61475	-140.21141	1165.90283	-959.19800	-699.43274	1152.51208	-1182.65234	-213.19730	882.60773	-846.88477	-741.06073	900.85840	-1012.93036	-292.40082	995.46387	-965.71881	-600.31317	1011.85992	-1099.37500				-321.11865	527.93152	-876.03180	-601.79657	529.52228	-1084.98975	-210.93907	213.47311	-1258.81433				
